<svg id="visual" viewBox="0 0 960 540" width="960" height="540" xmlns="http://www.w3.org/2000/svg" xmlns:xlink="http://www.w3.org/1999/xlink" version="1.1"><rect x="0" y="0" width="960" height="540" fill="#0D0221"></rect><path d="M610 0L502 0L502 28L696 28L696 57L428 57L428 85L262 85L262 114L239 114L239 142L208 142L208 171L236 171L236 199L475 199L475 227L745 227L745 256L665 256L665 284L233 284L233 313L732 313L732 341L751 341L751 369L774 369L774 398L759 398L759 426L336 426L336 455L737 455L737 483L755 483L755 512L279 512L279 540L0 540L0 512L0 512L0 483L0 483L0 455L0 455L0 426L0 426L0 398L0 398L0 369L0 369L0 341L0 341L0 313L0 313L0 284L0 284L0 256L0 256L0 227L0 227L0 199L0 199L0 171L0 171L0 142L0 142L0 114L0 114L0 85L0 85L0 57L0 57L0 28L0 28L0 0L0 0Z" fill="#0f084b"></path><path d="M222 0L297 0L297 28L375 28L375 57L422 57L422 85L297 85L297 114L537 114L537 142L197 142L197 171L306 171L306 199L281 199L281 227L372 227L372 256L657 256L657 284L654 284L654 313L639 313L639 341L229 341L229 369L236 369L236 398L236 398L236 426L438 426L438 455L246 455L246 483L260 483L260 512L360 512L360 540L0 540L0 512L0 512L0 483L0 483L0 455L0 455L0 426L0 426L0 398L0 398L0 369L0 369L0 341L0 341L0 313L0 313L0 284L0 284L0 256L0 256L0 227L0 227L0 199L0 199L0 171L0 171L0 142L0 142L0 114L0 114L0 85L0 85L0 57L0 57L0 28L0 28L0 0L0 0Z" fill="#191f66"></path><path d="M533 0L461 0L461 28L475 28L475 57L299 57L299 85L387 85L387 114L583 114L583 142L518 142L518 171L560 171L560 199L304 199L304 227L399 227L399 256L300 256L300 284L249 284L249 313L493 313L493 341L421 341L421 369L254 369L254 398L187 398L187 426L395 426L395 455L283 455L283 483L160 483L160 512L173 512L173 540L0 540L0 512L0 512L0 483L0 483L0 455L0 455L0 426L0 426L0 398L0 398L0 369L0 369L0 341L0 341L0 313L0 313L0 284L0 284L0 256L0 256L0 227L0 227L0 199L0 199L0 171L0 171L0 142L0 142L0 114L0 114L0 85L0 85L0 57L0 57L0 28L0 28L0 0L0 0Z" fill="#223780"></path><path d="M353 0L250 0L250 28L324 28L324 57L363 57L363 85L211 85L211 114L299 114L299 142L198 142L198 171L446 171L446 199L194 199L194 227L395 227L395 256L362 256L362 284L407 284L407 313L243 313L243 341L483 341L483 369L139 369L139 398L137 398L137 426L362 426L362 455L219 455L219 483L261 483L261 512L463 512L463 540L0 540L0 512L0 512L0 483L0 483L0 455L0 455L0 426L0 426L0 398L0 398L0 369L0 369L0 341L0 341L0 313L0 313L0 284L0 284L0 256L0 256L0 227L0 227L0 199L0 199L0 171L0 171L0 142L0 142L0 114L0 114L0 85L0 85L0 57L0 57L0 28L0 28L0 0L0 0Z" fill="#26408b"></path><path d="M103 0L242 0L242 28L276 28L276 57L205 57L205 85L280 85L280 114L273 114L273 142L179 142L179 171L131 171L131 199L281 199L281 227L195 227L195 256L376 256L376 284L131 284L131 313L129 313L129 341L379 341L379 369L101 369L101 398L326 398L326 426L318 426L318 455L158 455L158 483L357 483L357 512L236 512L236 540L0 540L0 512L0 512L0 483L0 483L0 455L0 455L0 426L0 426L0 398L0 398L0 369L0 369L0 341L0 341L0 313L0 313L0 284L0 284L0 256L0 256L0 227L0 227L0 199L0 199L0 171L0 171L0 142L0 142L0 114L0 114L0 85L0 85L0 57L0 57L0 28L0 28L0 0L0 0Z" fill="#223780"></path><path d="M254 0L158 0L158 28L286 28L286 57L104 57L104 85L70 85L70 114L124 114L124 142L192 142L192 171L261 171L261 199L184 199L184 227L220 227L220 256L270 256L270 284L102 284L102 313L137 313L137 341L292 341L292 369L139 369L139 398L103 398L103 426L186 426L186 455L126 455L126 483L190 483L190 512L128 512L128 540L0 540L0 512L0 512L0 483L0 483L0 455L0 455L0 426L0 426L0 398L0 398L0 369L0 369L0 341L0 341L0 313L0 313L0 284L0 284L0 256L0 256L0 227L0 227L0 199L0 199L0 171L0 171L0 142L0 142L0 114L0 114L0 85L0 85L0 57L0 57L0 28L0 28L0 0L0 0Z" fill="#191f66"></path><path d="M97 0L87 0L87 28L179 28L179 57L85 57L85 85L47 85L47 114L134 114L134 142L85 142L85 171L164 171L164 199L155 199L155 227L41 227L41 256L25 256L25 284L118 284L118 313L78 313L78 341L185 341L185 369L28 369L28 398L95 398L95 426L62 426L62 455L165 455L165 483L68 483L68 512L153 512L153 540L0 540L0 512L0 512L0 483L0 483L0 455L0 455L0 426L0 426L0 398L0 398L0 369L0 369L0 341L0 341L0 313L0 313L0 284L0 284L0 256L0 256L0 227L0 227L0 199L0 199L0 171L0 171L0 142L0 142L0 114L0 114L0 85L0 85L0 57L0 57L0 28L0 28L0 0L0 0Z" fill="#0f084b"></path></svg>