<?xml version="1.0" encoding="UTF-8" standalone="no" ?>
<!DOCTYPE svg PUBLIC "-//W3C//DTD SVG 1.1//EN" "http://www.w3.org/Graphics/SVG/1.1/DTD/svg11.dtd">
<svg xmlns="http://www.w3.org/2000/svg" xmlns:xlink="http://www.w3.org/1999/xlink" version="1.1" width="640" height="640" viewBox="0 0 640 640" xml:space="preserve">
<desc>Created with Fabric.js 4.6.0</desc>
<defs>
</defs>
<g transform="matrix(0.93 0 0 0.93 328.08 300.69)" id="5o3-JklpDJ_qVV0y5LwVM"  >
<path style="stroke: rgb(0,0,0); stroke-opacity: 0.72; stroke-width: 1; stroke-dasharray: none; stroke-linecap: butt; stroke-dashoffset: 0; stroke-linejoin: miter; stroke-miterlimit: 4; fill: rgb(224,172,213); fill-rule: nonzero; opacity: 1;" vector-effect="non-scaling-stroke"  transform=" translate(0, 0)" d="M 0 -241.48216 C 133.29815 -241.48216 241.48216 -133.29815 241.48216 0 C 241.48216 133.29815 133.29815 241.48216 0 241.48216 C -133.29815 241.48216 -241.48216 133.29815 -241.48216 0 C -241.48216 -133.29815 -133.29815 -241.48216 0 -241.48216 z" stroke-linecap="round" />
</g>
<g transform="matrix(4.27 0 0 4.27 328.08 294.57)" id="JON2oqGrU-fnAzpnVHLd4"  >
<path style="stroke: none; stroke-width: 1; stroke-dasharray: none; stroke-linecap: butt; stroke-dashoffset: 0; stroke-linejoin: miter; stroke-miterlimit: 4; fill: rgb(166,207,213); fill-rule: nonzero; opacity: 1;" vector-effect="non-scaling-stroke"  transform=" translate(-40, -40)" d="M 40 18.352 L 56.569 0 L 55.307 24.693 L 80 23.431 L 61.648 40 L 80 56.569 L 55.307 55.307 L 56.569 80 L 40 61.648 L 23.431 80 L 24.693 55.307 L 0 56.569 L 18.352 40 L 0 23.431 L 24.693 24.693 L 23.431 0 L 40 18.352 z" stroke-linecap="round" />
</g>
<g transform="matrix(3.27 0 0 3.27 320 300.69)" id="b-DohiLa2qiXpXwq3I9SS"  >
<path style="stroke: rgb(57,151,155); stroke-width: 0; stroke-dasharray: none; stroke-linecap: butt; stroke-dashoffset: 0; stroke-linejoin: miter; stroke-miterlimit: 4; fill: rgb(166,207,213); fill-rule: nonzero; opacity: 1;" vector-effect="non-scaling-stroke"  transform=" translate(-43.85, -41.71)" d="M 43.85275 0 L 56.86195 28.20389 L 87.7055 31.86089 L 64.90207000000001 52.94885 L 70.95524 83.41289 L 43.85275 68.24208 L 16.75026 83.41289 L 22.80343 52.94885000000001 L 0 31.86089000000001 L 30.84355 28.20389000000001 z" stroke-linecap="round" />
</g>
<g transform="matrix(4.69 0 0 4.69 320 300.69)" id="Ndd2xXANwhHqfdbjWTdN8"  >
<path style="stroke: none; stroke-width: 1; stroke-dasharray: none; stroke-linecap: butt; stroke-dashoffset: 0; stroke-linejoin: miter; stroke-miterlimit: 4; fill: rgb(194,231,217); fill-rule: nonzero; opacity: 1;" vector-effect="non-scaling-stroke"  transform=" translate(-40, -40)" d="M 40 19.294 L 50.718 0 L 50.353 22.068 L 69.282 10.718000000000002 L 57.931999999999995 29.647 L 80 29.282 L 60.706 40 L 80 50.718 L 57.932 50.353 L 69.282 69.282 L 50.352999999999994 57.931999999999995 L 50.718 80 L 40 60.706 L 29.282 80 L 29.647 57.932 L 10.718 69.282 L 22.067999999999998 50.352999999999994 L 0 50.718 L 19.294 40 L 0 29.282 L 22.068 29.647 L 10.718000000000002 10.718 L 29.647 22.067999999999998 L 29.282 0 L 40 19.294 z" stroke-linecap="round" />
</g>
<g transform="matrix(1 0 0 1 332.45 300.69)" id="uYalZVSYvW0uX5PAjQcHp"  >
<path style="stroke: rgb(168,153,188); stroke-width: 0; stroke-dasharray: none; stroke-linecap: butt; stroke-dashoffset: 0; stroke-linejoin: miter; stroke-miterlimit: 4; fill: rgb(166,207,213); fill-rule: nonzero; opacity: 1;" vector-effect="non-scaling-stroke"  transform=" translate(-61.33, -61.33)" d="M 0 0 L 122.6513 0 L 122.6513 122.6513 L 0 122.6513 z" stroke-linecap="round" />
</g>
<g transform="matrix(0.53 0 0 0.53 328.08 271.89)" id="zOf77MyNEJ4t9pu7VZivz"  >
<path style="stroke: rgb(0,0,0); stroke-opacity: 0.4; stroke-width: 1; stroke-dasharray: none; stroke-linecap: butt; stroke-dashoffset: 0; stroke-linejoin: miter; stroke-miterlimit: 4; fill: rgb(255,223,92); fill-rule: nonzero; opacity: 1;" vector-effect="non-scaling-stroke"  transform=" translate(0, 0)" d="M 173.70409 77.29605 C 172.95449000000002 41.03565 166.42189000000002 12.625049999999987 165.64169 9.35145 L 132.68819000000002 -161.46595 L 126.59359000000002 -161.46595 L 155.37319000000002 -209.45325 L 149.10119000000003 -213.21395 L 117.95859000000003 -161.46585000000002 L -74.06100999999997 -161.46585000000002 L -83.39910999999996 -200.11025 L -83.07230999999996 -200.11965 C -83.47230999999996 -201.02805 -83.81040999999996 -201.93835 -84.11130999999996 -202.84925 L -5.96360999999996 -224.48855 L -99.38570999999996 -245.85795000000002 L -168.51090999999997 -179.47945 L -92.57530999999997 -200.50585 L -83.14190999999997 -161.46605 L -132.68850999999995 -161.46605 L -165.64130999999995 9.349950000000007 C -166.42010999999994 12.614650000000006 -172.95410999999996 41.02835 -173.70430999999994 77.29605000000001 C -174.16540999999992 99.63795 -172.31690999999992 120.34535000000001 -168.20870999999994 138.84475 C -162.95940999999993 162.48165 -153.97790999999995 182.61695 -141.51480999999995 198.69075 C -117.68960999999996 229.41785000000002 -81.60680999999995 245.28725 -34.27070999999995 245.85735 L 34.20569000000005 245.85795 L 34.27039000000005 245.85735 C 81.60739000000005 245.28725 117.69019000000004 229.41785 141.51539000000005 198.68985 C 153.97849000000005 182.61695 162.95909000000006 162.48165 168.20839000000007 138.84475 C 172.31669000000005 120.34535 174.16609000000005 99.63725 173.70409000000006 77.29605000000001 z M 102.72709 -136.15615 L 57.270990000000005 -60.62505 L -49.69401 -60.62505 L -67.94551 -136.15615 z M -137.21521 -60.62505 L -122.64391 -136.15615 L -77.02631 -136.15615 L -58.774809999999995 -60.62505 z M 45.81509 6.64765 C 39.10819 17.80355 26.891689999999997 22.98115 17.453689999999998 19.12415 L 8.180889999999998 34.45995 C 14.422189999999997 41.39405 14.917589999999997 53.42285 8.738489999999999 63.70095 C 2.5305899999999983 74.02674999999999 -8.39751 79.23045 -17.47401 76.89025 L -25.70291 90.49934999999999 C -16.670409999999997 96.58115 -14.99771 110.64554999999999 -22.07211 122.41345 C -29.33091 134.48695 -43.04541 139.56735 -52.70451 133.76065 C -62.36361 127.95375 -64.30931 113.45835 -57.05081 101.38465 C -51.09501 91.47824999999999 -40.79411 86.28545 -31.952009999999998 87.94595 L -23.49261 73.94995 C -31.74461 67.56565 -33.07761 54.04615 -26.23981 42.67245 C -19.375909999999998 31.255049999999997 -6.7409099999999995 26.09715 2.78069 30.47965 L 11.89519 15.399049999999999 C 5.18009 8.563049999999999 4.495189999999999 -3.832650000000001 10.836689999999999 -14.381050000000002 C 17.20499 -24.973550000000003 28.541489999999996 -30.181250000000002 37.74989 -27.378750000000004 L 57.53399 -60.11195 L 64.95859 -59.44375 L 43.63059 -24.169249999999998 C 51.37419 -17.61405 52.49369 -4.461149999999996 45.81509 6.647650000000002 z M 66.11559 -60.62505 L 111.41429 -136.15615 L 125.03549 -136.15615 L 139.60649 -60.62505 z" stroke-linecap="round" />
</g>
<g transform="matrix(2.12 0 0 0.35 324.03 465.68)" id="F2raxSTm8keDGFfiMzrPA"  >
<path style="stroke: rgb(0,0,0); stroke-opacity: 0.4; stroke-width: 0; stroke-dasharray: none; stroke-linecap: butt; stroke-dashoffset: 0; stroke-linejoin: miter; stroke-miterlimit: 4; fill: rgb(49,168,247); fill-rule: nonzero; opacity: 1;" vector-effect="non-scaling-stroke"  transform=" translate(0, 0)" d="M -98.11321 21.25521 C -98.11321 -44.67014999999999 -89.33511999999999 -98.11321 -78.5068 -98.11321 L 78.5068 -98.11321 L 78.5068 -98.11321 C 89.33512 -98.11321 98.11321 -44.67014999999999 98.11321 21.255210000000005 L 98.11321 21.255210000000005 L 98.11321 21.255210000000005 C 98.11321 63.70271 92.46123999999999 98.11321000000001 85.48919 98.11321000000001 L -85.48919 98.11321000000001 L -85.48919 98.11321000000001 C -92.46123999999999 98.11321000000001 -98.11321 63.70271000000001 -98.11321 21.255210000000005 z" stroke-linecap="round" />
</g>
<g transform="matrix(1 0 0 1 332.45 465.68)" style="filter: url(#SVGID_2);" id="btWg7Sv5OLwe5kVAHyNXZ"  >
<filter id="SVGID_2" y="-24%" height="148%" x="-21%" width="142%" >
	<feGaussianBlur in="SourceAlpha" stdDeviation="0"></feGaussianBlur>
	<feOffset dx="4" dy="4" result="oBlur" ></feOffset>
	<feFlood flood-color="rgb(0,0,0)" flood-opacity="1"/>
	<feComposite in2="oBlur" operator="in" />
	<feMerge>
		<feMergeNode></feMergeNode>
		<feMergeNode in="SourceGraphic"></feMergeNode>
	</feMerge>
</filter>
		<text xml:space="preserve" font-family="Rajdhani" font-size="77" font-style="normal" font-weight="600" letter-spacing="0.154" line-height="1" style="stroke: rgb(0,0,0); stroke-width: 1; stroke-dasharray: none; stroke-linecap: butt; stroke-dashoffset: 0; stroke-linejoin: miter; stroke-miterlimit: 4; fill: rgb(255,255,255); fill-rule: nonzero; opacity: 1; white-space: pre;" ><tspan x="-168.5" y="20.69" >S</tspan><tspan x="-126.15" y="20.69" >o</tspan><tspan x="-87.19" y="20.69" >r</tspan><tspan x="-61.24" y="20.69" >t</tspan><tspan x="-34.06" y="20.69" >i</tspan><tspan x="-15.96" y="20.69" >r</tspan><tspan x="9.99" y="20.69" >.</tspan><tspan x="25.46" y="20.69" >c</tspan><tspan x="56.8" y="20.69" >o</tspan><tspan x="95.76" y="20.69" >m</tspan></text>
</g>
</svg>